<svg width="551" height="543" viewBox="0 0 551 543" fill="none" xmlns="http://www.w3.org/2000/svg">
<g clip-path="url(#clip0_1_2)">
<rect width="551" height="543" rx="50" fill="url(#paint0_linear_1_2)"/>
<path d="M300.881 224.906H271.34C258.807 224.906 249.774 221.732 244.24 215.385C238.706 208.874 235.939 200.329 235.939 189.75C235.939 166.312 253.436 154.594 288.43 154.594C321.307 154.594 346.047 159.477 362.648 169.242L348.488 179.984C337.095 174.776 317.076 172.172 288.43 172.172C274.432 172.172 264.992 173.718 260.109 176.811C255.389 179.903 253.029 184.216 253.029 189.75C253.029 195.284 254.331 199.597 256.936 202.689C259.54 205.782 264.341 207.328 271.34 207.328H301.613C323.586 207.328 343.361 211.072 360.939 218.559C378.68 226.046 393.247 236.299 404.641 249.32C416.034 262.178 424.742 277.071 430.764 293.998C436.786 310.762 439.797 328.747 439.797 347.953C439.797 363.578 437.6 378.389 433.205 392.387C428.811 406.384 422.137 419.242 413.186 430.961C404.396 442.68 393.736 452.852 381.203 461.479C368.833 469.942 354.022 476.534 336.77 481.254C319.68 486.137 301.125 488.578 281.105 488.578C249.693 488.578 220.233 483.777 192.727 474.174C165.383 464.734 142.596 451.469 124.367 434.379L138.527 423.881C155.129 438.855 175.881 450.492 200.783 458.793C225.848 466.931 252.622 471 281.105 471C303.404 471 323.505 467.826 341.408 461.479C359.475 454.968 374.286 446.098 385.842 434.867C397.561 423.637 406.512 410.616 412.697 395.805C419.045 380.993 422.219 365.043 422.219 347.953C422.219 325.329 417.661 304.903 408.547 286.674C399.432 268.282 385.516 253.389 366.799 241.996C348.244 230.603 326.271 224.906 300.881 224.906ZM271.34 242.484H299.172C332.212 242.484 358.01 252.576 376.564 272.758C395.282 292.94 404.641 318.005 404.641 347.953C404.641 378.389 393.817 403.617 372.17 423.637C350.523 443.493 320.168 453.422 281.105 453.422C255.064 453.422 230.731 449.841 208.107 442.68C185.484 435.518 166.685 425.427 151.711 412.406L165.383 401.42C178.729 412.325 195.493 420.788 215.676 426.811C236.021 432.833 257.831 435.844 281.105 435.844C315.448 435.844 341.652 427.624 359.719 411.186C377.948 394.747 387.062 373.669 387.062 347.953C387.062 322.562 379.413 301.566 364.113 284.965C348.977 268.363 327.248 260.062 298.928 260.062H271.34C247.577 260.062 229.755 253.552 217.873 240.531C205.992 227.51 200.051 210.583 200.051 189.75C200.051 168.917 207.375 151.99 222.023 138.969C236.835 125.948 258.97 119.438 288.43 119.438C309.1 119.438 328.306 121.879 346.047 126.762C363.788 131.482 378.436 138.318 389.992 147.27L376.076 158.012C355.731 144.014 326.516 137.016 288.43 137.016C263.853 137.016 245.868 141.898 234.475 151.664C223.244 161.267 217.629 173.962 217.629 189.75C217.629 205.701 221.779 218.477 230.08 228.08C238.544 237.683 252.297 242.484 271.34 242.484ZM271.34 277.641H298.195C321.958 277.641 339.781 284.232 351.662 297.416C363.544 310.6 369.484 327.445 369.484 347.953C369.484 368.786 362.079 385.714 347.268 398.734C332.619 411.755 310.565 418.266 281.105 418.266C260.435 418.266 241.148 415.906 223.244 411.186C205.503 406.303 190.855 399.385 179.299 390.434L193.215 379.691C213.56 393.689 242.857 400.688 281.105 400.688C305.682 400.688 323.586 395.886 334.816 386.283C346.21 376.518 351.906 363.741 351.906 347.953C351.906 332.165 347.674 319.47 339.211 309.867C330.747 300.102 316.994 295.219 297.951 295.219H271.34C237.974 295.219 211.851 285.29 192.971 265.434C174.253 245.414 164.895 220.186 164.895 189.75C164.895 159.314 175.718 134.167 197.365 114.311C219.012 94.291 249.367 84.2812 288.43 84.2812C314.471 84.2812 338.723 87.862 361.184 95.0234C383.807 102.185 402.606 112.276 417.58 125.297L403.908 136.283C390.562 125.378 373.798 116.915 353.615 110.893C333.433 104.87 311.704 101.859 288.43 101.859C254.087 101.859 227.801 110.079 209.572 126.518C191.506 142.956 182.473 164.034 182.473 189.75C182.473 215.303 190.122 236.381 205.422 252.982C220.721 269.421 242.694 277.641 271.34 277.641ZM271.34 312.797H298.195C310.728 312.797 319.761 316.052 325.295 322.562C330.829 329.073 333.596 337.536 333.596 347.953C333.596 371.391 316.099 383.109 281.105 383.109C248.065 383.109 223.244 378.227 206.643 368.461L220.803 357.719C232.196 362.927 252.297 365.531 281.105 365.531C295.103 365.531 304.462 363.985 309.182 360.893C314.064 357.8 316.506 353.487 316.506 347.953C316.506 342.582 315.122 338.35 312.355 335.258C309.751 332.003 304.868 330.375 297.707 330.375H271.34C248.879 330.375 228.534 326.713 210.305 319.389C192.238 312.064 177.346 301.973 165.627 289.115C154.071 276.257 145.201 261.365 139.016 244.438C132.831 227.51 129.738 209.281 129.738 189.75C129.738 174.125 131.936 159.314 136.33 145.316C140.725 131.319 147.316 118.461 156.105 106.742C165.057 95.0234 175.718 84.9323 188.088 76.4688C200.62 67.8424 215.432 61.1693 232.521 56.4492C249.774 51.5664 268.41 49.125 288.43 49.125C319.842 49.125 349.221 53.9264 376.564 63.5293C403.908 72.9694 426.695 86.2344 444.924 103.324L430.764 113.822C414.162 98.8483 393.41 87.2923 368.508 79.1543C343.605 70.8535 316.913 66.7031 288.43 66.7031C266.132 66.7031 245.949 69.9583 227.883 76.4688C209.979 82.8164 195.168 91.6055 183.449 102.836C171.893 114.066 162.941 127.087 156.594 141.898C150.409 156.71 147.316 172.66 147.316 189.75C147.316 212.699 151.955 233.37 161.232 251.762C170.51 270.154 184.67 284.965 203.713 296.195C222.756 307.263 245.298 312.797 271.34 312.797Z" fill="#3D3E42"/>
</g>
<defs>
<linearGradient id="paint0_linear_1_2" x1="275.5" y1="0" x2="275.5" y2="543" gradientUnits="userSpaceOnUse">
<stop offset="0.215" stop-color="#EEF2FF"/>
<stop offset="0.28" stop-color="#DCE2F7"/>
<stop offset="0.72998" stop-color="#6C7FC3"/>
<stop offset="0.9999" stop-color="#495582"/>
<stop offset="1" stop-color="#3B466B"/>
</linearGradient>
<clipPath id="clip0_1_2">
<rect width="551" height="543" fill="white"/>
</clipPath>
</defs>
</svg>
