<svg width="551" height="543" viewBox="0 0 551 543" fill="none" xmlns="http://www.w3.org/2000/svg">
<g clip-path="url(#clip0_16_6)">
<path d="M304.881 224.906H275.34C262.807 224.906 253.774 221.732 248.24 215.385C242.706 208.874 239.939 200.329 239.939 189.75C239.939 166.312 257.436 154.594 292.43 154.594C325.307 154.594 350.047 159.477 366.648 169.242L352.488 179.984C341.095 174.776 321.076 172.172 292.43 172.172C278.432 172.172 268.992 173.718 264.109 176.811C259.389 179.903 257.029 184.216 257.029 189.75C257.029 195.284 258.331 199.597 260.936 202.689C263.54 205.782 268.341 207.328 275.34 207.328H305.613C327.586 207.328 347.361 211.072 364.939 218.559C382.68 226.046 397.247 236.299 408.641 249.32C420.034 262.178 428.742 277.071 434.764 293.998C440.786 310.762 443.797 328.747 443.797 347.953C443.797 363.578 441.6 378.389 437.205 392.387C432.811 406.384 426.137 419.242 417.186 430.961C408.396 442.68 397.736 452.852 385.203 461.479C372.833 469.942 358.022 476.534 340.77 481.254C323.68 486.137 305.125 488.578 285.105 488.578C253.693 488.578 224.233 483.777 196.727 474.174C169.383 464.734 146.596 451.469 128.367 434.379L142.527 423.881C159.129 438.855 179.881 450.492 204.783 458.793C229.848 466.931 256.622 471 285.105 471C307.404 471 327.505 467.826 345.408 461.479C363.475 454.968 378.286 446.098 389.842 434.867C401.561 423.637 410.512 410.616 416.697 395.805C423.045 380.993 426.219 365.043 426.219 347.953C426.219 325.329 421.661 304.903 412.547 286.674C403.432 268.282 389.516 253.389 370.799 241.996C352.244 230.603 330.271 224.906 304.881 224.906ZM275.34 242.484H303.172C336.212 242.484 362.01 252.576 380.564 272.758C399.282 292.94 408.641 318.005 408.641 347.953C408.641 378.389 397.817 403.617 376.17 423.637C354.523 443.493 324.168 453.422 285.105 453.422C259.064 453.422 234.731 449.841 212.107 442.68C189.484 435.518 170.685 425.427 155.711 412.406L169.383 401.42C182.729 412.325 199.493 420.788 219.676 426.811C240.021 432.833 261.831 435.844 285.105 435.844C319.448 435.844 345.652 427.624 363.719 411.186C381.948 394.747 391.062 373.669 391.062 347.953C391.062 322.562 383.413 301.566 368.113 284.965C352.977 268.363 331.248 260.062 302.928 260.062H275.34C251.577 260.062 233.755 253.552 221.873 240.531C209.992 227.51 204.051 210.583 204.051 189.75C204.051 168.917 211.375 151.99 226.023 138.969C240.835 125.948 262.97 119.438 292.43 119.438C313.1 119.438 332.306 121.879 350.047 126.762C367.788 131.482 382.436 138.318 393.992 147.27L380.076 158.012C359.731 144.014 330.516 137.016 292.43 137.016C267.853 137.016 249.868 141.898 238.475 151.664C227.244 161.267 221.629 173.962 221.629 189.75C221.629 205.701 225.779 218.477 234.08 228.08C242.544 237.683 256.297 242.484 275.34 242.484ZM275.34 277.641H302.195C325.958 277.641 343.781 284.232 355.662 297.416C367.544 310.6 373.484 327.445 373.484 347.953C373.484 368.786 366.079 385.714 351.268 398.734C336.619 411.755 314.565 418.266 285.105 418.266C264.435 418.266 245.148 415.906 227.244 411.186C209.503 406.303 194.855 399.385 183.299 390.434L197.215 379.691C217.56 393.689 246.857 400.688 285.105 400.688C309.682 400.688 327.586 395.886 338.816 386.283C350.21 376.518 355.906 363.741 355.906 347.953C355.906 332.165 351.674 319.47 343.211 309.867C334.747 300.102 320.994 295.219 301.951 295.219H275.34C241.974 295.219 215.851 285.29 196.971 265.434C178.253 245.414 168.895 220.186 168.895 189.75C168.895 159.314 179.718 134.167 201.365 114.311C223.012 94.291 253.367 84.2812 292.43 84.2812C318.471 84.2812 342.723 87.862 365.184 95.0234C387.807 102.185 406.606 112.276 421.58 125.297L407.908 136.283C394.562 125.378 377.798 116.915 357.615 110.893C337.433 104.87 315.704 101.859 292.43 101.859C258.087 101.859 231.801 110.079 213.572 126.518C195.506 142.956 186.473 164.034 186.473 189.75C186.473 215.303 194.122 236.381 209.422 252.982C224.721 269.421 246.694 277.641 275.34 277.641ZM275.34 312.797H302.195C314.728 312.797 323.761 316.052 329.295 322.562C334.829 329.073 337.596 337.536 337.596 347.953C337.596 371.391 320.099 383.109 285.105 383.109C252.065 383.109 227.244 378.227 210.643 368.461L224.803 357.719C236.196 362.927 256.297 365.531 285.105 365.531C299.103 365.531 308.462 363.985 313.182 360.893C318.064 357.8 320.506 353.487 320.506 347.953C320.506 342.582 319.122 338.35 316.355 335.258C313.751 332.003 308.868 330.375 301.707 330.375H275.34C252.879 330.375 232.534 326.713 214.305 319.389C196.238 312.064 181.346 301.973 169.627 289.115C158.071 276.257 149.201 261.365 143.016 244.438C136.831 227.51 133.738 209.281 133.738 189.75C133.738 174.125 135.936 159.314 140.33 145.316C144.725 131.319 151.316 118.461 160.105 106.742C169.057 95.0234 179.718 84.9323 192.088 76.4688C204.62 67.8424 219.432 61.1693 236.521 56.4492C253.774 51.5664 272.41 49.125 292.43 49.125C323.842 49.125 353.221 53.9264 380.564 63.5293C407.908 72.9694 430.695 86.2344 448.924 103.324L434.764 113.822C418.162 98.8483 397.41 87.2923 372.508 79.1543C347.605 70.8535 320.913 66.7031 292.43 66.7031C270.132 66.7031 249.949 69.9583 231.883 76.4688C213.979 82.8164 199.168 91.6055 187.449 102.836C175.893 114.066 166.941 127.087 160.594 141.898C154.409 156.71 151.316 172.66 151.316 189.75C151.316 212.699 155.955 233.37 165.232 251.762C174.51 270.154 188.67 284.965 207.713 296.195C226.756 307.263 249.298 312.797 275.34 312.797Z" fill="url(#paint0_linear_16_6)"/>
</g>
<defs>
<linearGradient id="paint0_linear_16_6" x1="289.5" y1="-106" x2="289.5" y2="543" gradientUnits="userSpaceOnUse">
<stop stop-color="#494949"/>
<stop offset="0.40748" stop-color="#6D7AA7"/>
<stop offset="0.625039" stop-color="#6C7FC3"/>
<stop offset="0.9998" stop-color="#3B466B"/>
<stop offset="0.9999" stop-color="#495582"/>
</linearGradient>
<clipPath id="clip0_16_6">
<rect width="551" height="543" fill="white"/>
</clipPath>
</defs>
</svg>
