<svg width="551" height="543" viewBox="0 0 551 543" fill="none" xmlns="http://www.w3.org/2000/svg">
<g clip-path="url(#clip0_16_12)">
<path d="M288.881 224.906H259.34C246.807 224.906 237.774 221.732 232.24 215.385C226.706 208.874 223.939 200.329 223.939 189.75C223.939 166.312 241.436 154.594 276.43 154.594C309.307 154.594 334.047 159.477 350.648 169.242L336.488 179.984C325.095 174.776 305.076 172.172 276.43 172.172C262.432 172.172 252.992 173.718 248.109 176.811C243.389 179.903 241.029 184.216 241.029 189.75C241.029 195.284 242.331 199.597 244.936 202.689C247.54 205.782 252.341 207.328 259.34 207.328H289.613C311.586 207.328 331.361 211.072 348.939 218.559C366.68 226.046 381.247 236.299 392.641 249.32C404.034 262.178 412.742 277.071 418.764 293.998C424.786 310.762 427.797 328.747 427.797 347.953C427.797 363.578 425.6 378.389 421.205 392.387C416.811 406.384 410.137 419.242 401.186 430.961C392.396 442.68 381.736 452.852 369.203 461.479C356.833 469.942 342.022 476.534 324.77 481.254C307.68 486.137 289.125 488.578 269.105 488.578C237.693 488.578 208.233 483.777 180.727 474.174C153.383 464.734 130.596 451.469 112.367 434.379L126.527 423.881C143.129 438.855 163.881 450.492 188.783 458.793C213.848 466.931 240.622 471 269.105 471C291.404 471 311.505 467.826 329.408 461.479C347.475 454.968 362.286 446.098 373.842 434.867C385.561 423.637 394.512 410.616 400.697 395.805C407.045 380.993 410.219 365.043 410.219 347.953C410.219 325.329 405.661 304.903 396.547 286.674C387.432 268.282 373.516 253.389 354.799 241.996C336.244 230.603 314.271 224.906 288.881 224.906ZM259.34 242.484H287.172C320.212 242.484 346.01 252.576 364.564 272.758C383.282 292.94 392.641 318.005 392.641 347.953C392.641 378.389 381.817 403.617 360.17 423.637C338.523 443.493 308.168 453.422 269.105 453.422C243.064 453.422 218.731 449.841 196.107 442.68C173.484 435.518 154.685 425.427 139.711 412.406L153.383 401.42C166.729 412.325 183.493 420.788 203.676 426.811C224.021 432.833 245.831 435.844 269.105 435.844C303.448 435.844 329.652 427.624 347.719 411.186C365.948 394.747 375.062 373.669 375.062 347.953C375.062 322.562 367.413 301.566 352.113 284.965C336.977 268.363 315.248 260.062 286.928 260.062H259.34C235.577 260.062 217.755 253.552 205.873 240.531C193.992 227.51 188.051 210.583 188.051 189.75C188.051 168.917 195.375 151.99 210.023 138.969C224.835 125.948 246.97 119.438 276.43 119.438C297.1 119.438 316.306 121.879 334.047 126.762C351.788 131.482 366.436 138.318 377.992 147.27L364.076 158.012C343.731 144.014 314.516 137.016 276.43 137.016C251.853 137.016 233.868 141.898 222.475 151.664C211.244 161.267 205.629 173.962 205.629 189.75C205.629 205.701 209.779 218.477 218.08 228.08C226.544 237.683 240.297 242.484 259.34 242.484ZM259.34 277.641H286.195C309.958 277.641 327.781 284.232 339.662 297.416C351.544 310.6 357.484 327.445 357.484 347.953C357.484 368.786 350.079 385.714 335.268 398.734C320.619 411.755 298.565 418.266 269.105 418.266C248.435 418.266 229.148 415.906 211.244 411.186C193.503 406.303 178.855 399.385 167.299 390.434L181.215 379.691C201.56 393.689 230.857 400.688 269.105 400.688C293.682 400.688 311.586 395.886 322.816 386.283C334.21 376.518 339.906 363.741 339.906 347.953C339.906 332.165 335.674 319.47 327.211 309.867C318.747 300.102 304.994 295.219 285.951 295.219H259.34C225.974 295.219 199.851 285.29 180.971 265.434C162.253 245.414 152.895 220.186 152.895 189.75C152.895 159.314 163.718 134.167 185.365 114.311C207.012 94.291 237.367 84.2812 276.43 84.2812C302.471 84.2812 326.723 87.862 349.184 95.0234C371.807 102.185 390.606 112.276 405.58 125.297L391.908 136.283C378.562 125.378 361.798 116.915 341.615 110.893C321.433 104.87 299.704 101.859 276.43 101.859C242.087 101.859 215.801 110.079 197.572 126.518C179.506 142.956 170.473 164.034 170.473 189.75C170.473 215.303 178.122 236.381 193.422 252.982C208.721 269.421 230.694 277.641 259.34 277.641ZM259.34 312.797H286.195C298.728 312.797 307.761 316.052 313.295 322.562C318.829 329.073 321.596 337.536 321.596 347.953C321.596 371.391 304.099 383.109 269.105 383.109C236.065 383.109 211.244 378.227 194.643 368.461L208.803 357.719C220.196 362.927 240.297 365.531 269.105 365.531C283.103 365.531 292.462 363.985 297.182 360.893C302.064 357.8 304.506 353.487 304.506 347.953C304.506 342.582 303.122 338.35 300.355 335.258C297.751 332.003 292.868 330.375 285.707 330.375H259.34C236.879 330.375 216.534 326.713 198.305 319.389C180.238 312.064 165.346 301.973 153.627 289.115C142.071 276.257 133.201 261.365 127.016 244.438C120.831 227.51 117.738 209.281 117.738 189.75C117.738 174.125 119.936 159.314 124.33 145.316C128.725 131.319 135.316 118.461 144.105 106.742C153.057 95.0234 163.718 84.9323 176.088 76.4688C188.62 67.8424 203.432 61.1693 220.521 56.4492C237.774 51.5664 256.41 49.125 276.43 49.125C307.842 49.125 337.221 53.9264 364.564 63.5293C391.908 72.9694 414.695 86.2344 432.924 103.324L418.764 113.822C402.162 98.8483 381.41 87.2923 356.508 79.1543C331.605 70.8535 304.913 66.7031 276.43 66.7031C254.132 66.7031 233.949 69.9583 215.883 76.4688C197.979 82.8164 183.168 91.6055 171.449 102.836C159.893 114.066 150.941 127.087 144.594 141.898C138.409 156.71 135.316 172.66 135.316 189.75C135.316 212.699 139.955 233.37 149.232 251.762C158.51 270.154 172.67 284.965 191.713 296.195C210.756 307.263 233.298 312.797 259.34 312.797Z" fill="url(#paint0_linear_16_12)"/>
</g>
<defs>
<linearGradient id="paint0_linear_16_12" x1="273.5" y1="-106" x2="273.5" y2="543" gradientUnits="userSpaceOnUse">
<stop offset="0.0158175" stop-color="#EEF2FF"/>
<stop offset="0.300403" stop-color="#DCE2F7"/>
<stop offset="0.865649" stop-color="#6C7FC3"/>
<stop offset="0.9999" stop-color="#495582"/>
<stop offset="1" stop-color="#3B466B"/>
</linearGradient>
<clipPath id="clip0_16_12">
<rect width="551" height="543" fill="white"/>
</clipPath>
</defs>
</svg>
